<?xml version="1.0" encoding="utf-8"?>
<!-- Generator: Adobe Illustrator 27.2.0, SVG Export Plug-In . SVG Version: 6.00 Build 0)  -->
<svg version="1.1" id="svg5" xmlns="http://www.w3.org/2000/svg" xmlns:xlink="http://www.w3.org/1999/xlink" x="0px" y="0px"
	 viewBox="0 0 64 64" style="enable-background:new 0 0 64 64;" xml:space="preserve">
<style type="text/css">
	.st0{fill:#FFFFFF;}
	.st1{fill:#272727;}
</style>
<g id="layer1">
	<circle id="path846" class="st0" cx="32" cy="32" r="32"/>
	<path class="st1" d="M7.6,21.4h2.9c-0.1,4.9-0.2,8.5-0.2,11c0,2.8,0.1,6.2,0.2,10.3H7.6c0.1-3.2,0.1-6.6,0.1-10.2
		C7.7,30.6,7.7,27,7.6,21.4L7.6,21.4z M11.4,31.5l0.1-0.6c0.3,0.1,0.5,0.1,0.7,0.1c2.1,0,3.7-1,4.8-3c1.2-2,1.6-4.2,1.2-6.6H21
		c0,1.5-0.3,3-1,4.5c-0.6,1.5-1.6,2.7-2.8,3.7c-1.2,1-2.6,1.6-4.1,1.7c4.2,0.8,7.3,4.5,9.1,11.2l-3.5,0.4c-0.4-3.3-1.2-5.9-2.4-7.9
		c-1.2-2-2.6-3.1-4.2-3.4C12,31.5,11.7,31.5,11.4,31.5L11.4,31.5z"/>
	<path class="st1" d="M23.6,22.5l0.3-1.3c1.1,0.1,3.5,0.2,7.3,0.2c2.9,0,4.7,0,5.7-0.1l0.1,1.2c-1.3-0.4-3.1-0.6-5.4-0.6
		c-0.1,4.7-0.1,8.3-0.1,11c0,3.1,0.1,6.3,0.2,9.7h-2.9c0.1-3.1,0.1-6.4,0.1-10c0-1.7,0-5.3-0.1-10.7C26.3,21.9,24.6,22.1,23.6,22.5z
		"/>
	<path class="st1" d="M43,42.6h-3.2C40,40.2,40,36.7,40,32.1c0-5-0.1-8.6-0.3-10.7c1.4-0.3,2.8-0.5,4.2-0.5c3.7,0,6.7,1,9,3.1
		s3.5,4.8,3.5,8.2c0,1.6-0.2,3-0.7,4.3c-0.5,1.3-1.1,2.3-1.8,3.1c-0.7,0.8-1.6,1.4-2.5,2c-0.9,0.5-1.8,0.9-2.7,1.1
		c-0.9,0.2-1.7,0.3-2.6,0.3c-0.3,0-0.6,0-0.7,0l-0.4-1c0.6,0.2,1.3,0.3,2,0.3c0.8,0,1.6-0.2,2.3-0.5c0.7-0.3,1.3-0.8,1.9-1.6
		c0.6-0.7,1.1-1.8,1.4-3.1c0.3-1.4,0.5-3,0.5-4.9c0-3.2-0.7-5.7-2.1-7.7c-1.4-2-3.4-2.9-5.9-2.9c-0.7,0-1.5,0.1-2.3,0.3
		c-0.1,2.3-0.2,5.6-0.2,9.9C42.7,36.8,42.8,40.4,43,42.6L43,42.6z"/>
</g>
</svg>
