<svg xmlns="http://www.w3.org/2000/svg" viewBox="0 0 100 100"><path d="M50 100c27.61 0 50-22.39 50-50S77.61 0 50 0 0 22.39 0 50s22.39 50 50 50ZM27.2 32.2a7.485 7.485 0 0 1 5.3-2.2h35c1.99 0 3.9.79 5.3 2.2a7.485 7.485 0 0 1 2.2 5.3v25c0 1.99-.79 3.9-2.2 5.3S69.49 70 67.5 70h-35c-1.99 0-3.9-.79-5.3-2.2a7.485 7.485 0 0 1-2.2-5.3v-25c0-1.99.79-3.9 2.2-5.3Zm24.58 17.5L66.48 35H33.53l14.7 14.7c.23.23.51.42.81.55.3.13.63.19.96.19s.66-.07.96-.19c.3-.13.58-.31.81-.55Zm17.49 14.57c.47-.47.73-1.1.73-1.77V38.53l-14.7 14.7c-1.41 1.4-3.31 2.19-5.3 2.19s-3.89-.79-5.3-2.19L30 38.53V62.5c0 .66.26 1.3.73 1.77s1.1.73 1.77.73h35c.66 0 1.3-.26 1.77-.73Z" style="fill:#272727;fill-rule:evenodd"/></svg>