<svg xmlns="http://www.w3.org/2000/svg" viewBox="0 0 100 100"><path d="M50 100c27.61 0 50-22.39 50-50S77.61 0 50 0 0 22.39 0 50s22.39 50 50 50ZM25 39.39C25 31.45 31.46 25 39.39 25h21.22C68.55 25 75 31.46 75 39.39V60.8c0 7.94-6.46 14.39-14.39 14.39H39.39C31.45 75.19 25 68.73 25 60.8V39.39Zm35.61 31.04c5.31 0 9.63-4.32 9.63-9.63V39.39c0-5.31-4.32-9.63-9.63-9.63H39.39c-5.31 0-9.63 4.32-9.63 9.63V60.8c0 5.31 4.32 9.63 9.63 9.63h21.22ZM36.99 50c0-7.12 5.86-12.91 13.05-12.91S63.09 42.88 63.09 50s-5.86 12.91-13.05 12.91S36.99 57.12 36.99 50Zm4.75 0c0 4.5 3.72 8.16 8.3 8.16s8.3-3.66 8.3-8.16-3.72-8.16-8.3-8.16-8.3 3.66-8.3 8.16Zm21.58-10.37c1.7 0 3.07-1.37 3.07-3.07s-1.37-3.07-3.07-3.07-3.07 1.37-3.07 3.07 1.37 3.07 3.07 3.07Z" style="fill:#272727;fill-rule:evenodd"/></svg>