<svg xmlns="http://www.w3.org/2000/svg" viewBox="0 0 90.7 90.7" style="enable-background:new 0 0 90.7 90.7" xml:space="preserve"><g transform="translate(-1.323 -15.875)"><circle cx="46.7" cy="61.2" r="45.4" style="fill:#fff"/><g style="enable-background:new"><path d="M12.1 46.2h4c-.2 6.9-.3 12.1-.3 15.5 0 3.9.1 8.8.3 14.6H12c.1-4.5.2-9.3.2-14.4 0-2.6 0-7.8-.1-15.7zm5.4 14.3.2-.8c.4.1.7.1 1.1.1 2.9.1 5.2-1.3 6.8-4.2 1.6-2.9 2.2-6 1.7-9.4h3.9c0 2.2-.4 4.3-1.3 6.3s-2.2 3.8-4 5.3c-1.7 1.5-3.7 2.3-5.9 2.4 6 1.1 10.3 6.4 12.9 15.9l-4.9.5c-.5-4.6-1.7-8.4-3.4-11.2-1.7-2.8-3.7-4.4-6-4.9h-1.1zm17.3-12.7.4-1.8c1.6.2 5 .3 10.3.3 4 0 6.7-.1 8.1-.2l.1 1.8c-1.9-.6-4.4-.9-7.7-.9-.1 6.6-.2 11.8-.2 15.6 0 4.3.1 8.9.3 13.7H42c.1-4.4.2-9.1.2-14.1 0-2.5-.1-7.5-.2-15.2-3.4 0-5.8.2-7.2.8zm27.4 28.4h-4.5c.2-3.4.3-8.4.3-14.8 0-7.1-.2-12.2-.5-15.1 2-.4 4-.7 6-.7 5.2 0 9.5 1.5 12.8 4.4 3.3 3 5 6.8 5 11.6 0 2.2-.3 4.2-1 6.1-.7 1.8-1.5 3.3-2.6 4.4-1 1.1-2.2 2-3.5 2.8s-2.6 1.3-3.8 1.6c-1.2.3-2.4.4-3.6.4h-1.1l-.5-1.3c.9.3 1.8.4 2.8.4 1.2 0 2.3-.2 3.2-.7S73.1 74 74 73c.9-1 1.5-2.5 2-4.4.5-1.9.7-4.2.7-6.9 0-4.5-1-8.1-3-10.9-2-2.8-4.8-4.2-8.4-4.2-1 0-2.2.1-3.3.4-.2 3.2-.3 7.9-.3 14 .1 7 .3 12.1.5 15.2z" style="fill:#272727"/></g></g></svg>