<svg xmlns="http://www.w3.org/2000/svg" viewBox="0 0 100 100"><path d="M50 100c27.61 0 50-22.39 50-50S77.61 0 50 0 0 22.39 0 50s22.39 50 50 50Zm19.76-71.01C64.61 23.84 57.77 21 50.48 21c-15.02 0-27.25 12.23-27.25 27.25 0 4.8 1.25 9.49 3.64 13.62L23 75.99l14.45-3.79c3.98 2.17 8.46 3.32 13.02 3.32h.01c15.02 0 27.25-12.23 27.25-27.25 0-7.28-2.83-14.13-7.97-19.28ZM50.48 70.92c-4.07 0-8.05-1.09-11.53-3.16l-.83-.49-8.57 2.25 2.29-8.36-.54-.86a22.589 22.589 0 0 1-3.46-12.06c0-12.49 10.17-22.65 22.66-22.65 6.05 0 11.74 2.36 16.01 6.64 4.28 4.28 6.63 9.97 6.63 16.03 0 12.49-10.17 22.65-22.65 22.65ZM62.9 53.95c-.68-.34-4.03-1.99-4.65-2.22-.62-.23-1.08-.34-1.53.34-.45.68-1.76 2.22-2.16 2.67s-.79.51-1.48.17c-.11-.06-.26-.12-.45-.2-.96-.42-2.85-1.24-5.03-3.18-2.02-1.81-3.39-4.04-3.79-4.72-.4-.68-.04-1.05.3-1.39.2-.2.44-.49.67-.78.12-.14.23-.29.35-.42.29-.34.41-.59.58-.94.03-.06.06-.13.1-.2.23-.45.11-.85-.06-1.19-.11-.23-.76-1.8-1.34-3.22-.29-.71-.57-1.38-.76-1.83-.49-1.17-.98-1.17-1.38-1.17h-.15c-.4-.02-.85-.02-1.31-.02s-1.19.17-1.82.85c-.04.04-.09.09-.13.14-.71.76-2.25 2.4-2.25 5.54 0 3.34 2.43 6.57 2.78 7.04s.06.09.12.17c.81 1.17 5.13 7.36 11.51 10.11 1.63.7 2.89 1.12 3.88 1.43 1.63.52 3.12.45 4.29.27 1.31-.2 4.03-1.65 4.6-3.24.57-1.59.57-2.95.4-3.24-.14-.23-.46-.39-.94-.62-.11-.06-.24-.11-.37-.18Z" style="fill:#272727;fill-rule:evenodd"/></svg>