<svg xmlns="http://www.w3.org/2000/svg" viewBox="0 0 100 100"><path d="M50 100c27.61 0 50-22.39 50-50S77.61 0 50 0 0 22.39 0 50s22.39 50 50 50Zm17.9-67.37c3.84.35 6 2.69 6.48 6.44.33 2.61.63 6.35.63 10.37 0 7.06-.63 11.15-.63 11.15-.59 3.73-2.39 5.75-6.18 6.18-4.23.48-13.76.7-17.99.7s-13.24-.18-17.66-.55c-3.8-.32-6.39-2.44-6.92-6.22-.38-2.75-.63-6.02-.63-11.22 0-5.79.21-8.24.7-10.85.7-3.73 2.48-5.54 6.55-5.96 4.27-.44 8.3-.66 17.33-.66 4.41 0 13.93.23 18.32.63Zm-23.22 9.76v14.37l13.69-7.26-13.69-7.11Z" style="fill:#272727;fill-rule:evenodd"/></svg>